<svg height="512pt" viewBox="0 0 512 512" width="512pt" xmlns="http://www.w3.org/2000/svg"><path d="m492 199.898438h-63.382812l-117.378907-124.226563c1.789063-5.574219 2.761719-11.511719 2.761719-17.671875 0-31.980469-26.019531-58-58-58s-58 26.019531-58 58c0 6.160156.972656 12.097656 2.761719 17.671875l-117.378907 124.226563h-63.382812c-11.046875 0-20 8.957031-20 20v272.101562c0 11.046875 8.953125 20 20 20h472c11.046875 0 20-8.953125 20-20v-272.101562c0-11.042969-8.953125-20-20-20zm-236-159.898438c9.925781 0 18 8.074219 18 18s-8.074219 18-18 18-18-8.074219-18-18 8.074219-18 18-18zm-30.246094 67.464844c8.8125 5.410156 19.167969 8.535156 30.246094 8.535156s21.433594-3.125 30.246094-8.535156l87.339844 92.4375h-235.171876zm246.246094 364.535156h-432v-232.101562h432zm0 0"/></svg>