<?xml version="1.0" encoding="iso-8859-1"?>
<!-- Generator: Adobe Illustrator 19.0.0, SVG Export Plug-In . SVG Version: 6.00 Build 0)  -->
<svg version="1.1" id="Layer_1" xmlns="http://www.w3.org/2000/svg" xmlns:xlink="http://www.w3.org/1999/xlink" x="0px" y="0px"
	 viewBox="0 0 512 512" style="enable-background:new 0 0 512 512;" xml:space="preserve">
<g>
	<g>
		<g>
			<circle cx="256.001" cy="424.201" r="6.905"/>
			<circle cx="87.8" cy="256.001" r="6.906"/>
			<circle cx="137.065" cy="137.064" r="6.906"/>
			<path d="M256,49.043c-114.116,0-206.957,92.84-206.957,206.957S141.884,462.957,256,462.957S462.957,370.116,462.957,256
				S370.116,49.043,256,49.043z M256,446.609c-105.102,0-190.609-85.507-190.609-190.609S150.898,65.391,256,65.391
				S446.609,150.898,446.609,256S361.102,446.609,256,446.609z"/>
			<circle cx="256" cy="87.799" r="6.906"/>
			<circle cx="137.065" cy="374.937" r="6.906"/>
			<path d="M370.053,370.052c-2.698,2.697-2.698,7.07-0.001,9.767c2.7,2.695,7.069,2.696,9.766,0c2.7-2.695,2.697-7.069,0.001-9.765
				C377.124,367.356,372.752,367.355,370.053,370.052z"/>
			<path d="M424.201,249.095c-3.813-0.001-6.906,3.089-6.906,6.904c0,3.816,3.091,6.907,6.905,6.907
				c3.814-0.003,6.905-3.092,6.905-6.906C431.109,252.187,428.015,249.095,424.201,249.095z"/>
			<path d="M379.819,141.949c2.694-2.7,2.696-7.069-0.001-9.766c-2.695-2.7-7.069-2.697-9.765-0.001
				c-2.698,2.695-2.7,7.068-0.001,9.766C372.749,144.645,377.122,144.646,379.819,141.949z"/>
			<path d="M327.93,231.478h-61.777l-80.037-80.037c-4.632-4.632-10.79-7.182-17.341-7.182c-6.55,0-12.708,2.551-17.338,7.182
				c-9.561,9.561-9.561,25.118,0,34.678l87.218,87.219c4.631,4.632,10.79,7.182,17.34,7.182h71.934
				c13.522,0,24.522-11,24.522-24.522C352.452,242.478,341.452,231.478,327.93,231.478z M261.775,261.779
				c-1.543,1.543-3.595,2.393-5.779,2.393c-2.183,0-4.235-0.85-5.78-2.394l-87.218-87.219c-3.187-3.187-3.187-8.372,0-11.56
				c1.543-1.543,3.595-2.393,5.778-2.393c2.184,0,4.237,0.85,5.781,2.394l87.218,87.219c1.544,1.544,2.394,3.596,2.394,5.779
				C264.171,258.183,263.319,260.235,261.775,261.779z M327.93,264.174h-48.832c0.915-2.594,1.42-5.342,1.42-8.174
				c0-2.831-0.503-5.58-1.42-8.174h48.832c4.508,0,8.174,3.666,8.174,8.174S332.438,264.174,327.93,264.174z"/>
			<path d="M437.019,74.981C388.667,26.628,324.381,0,256,0S123.332,26.628,74.981,74.981C26.629,123.333,0,187.619,0,256
				s26.628,132.668,74.981,181.019C123.333,485.371,187.62,512,256,512s132.667-26.628,181.019-74.981
				C485.372,388.667,512,324.38,512,256S485.372,123.333,437.019,74.981z M425.46,425.46
				c-45.265,45.264-105.447,70.192-169.46,70.192S131.805,470.724,86.54,425.46C41.276,380.195,16.348,320.014,16.348,256
				S41.276,131.805,86.54,86.54C131.805,41.276,191.986,16.348,256,16.348S380.195,41.276,425.46,86.54
				c45.264,45.265,70.192,105.447,70.192,169.46S470.724,380.195,425.46,425.46z"/>
		</g>
	</g>
</g>
<g>
</g>
<g>
</g>
<g>
</g>
<g>
</g>
<g>
</g>
<g>
</g>
<g>
</g>
<g>
</g>
<g>
</g>
<g>
</g>
<g>
</g>
<g>
</g>
<g>
</g>
<g>
</g>
<g>
</g>
</svg>
